{
    "asset" : {
        "generator" : "Khronos glTF Blender I/O v1.2.75",
        "version" : "2.0"
    },
    "scene" : 0,
    "scenes" : [
        {
            "extras" : {
                "glTF2ExportSettings" : {
                    "export_apply" : 1,
                    "export_extras" : 1,
                    "export_format" : "GLTF_SEPARATE",
                    "export_tangents" : 1,
                    "export_texture_dir" : ""
                }
            },
            "name" : "Scene",
            "nodes" : [
                0
            ]
        }
    ],
    "nodes" : [
        {
            "extras" : {
                "ant_landscape" : {
                    "ant_terrain_name" : "Landscape",
                    "at_cursor" : 1,
                    "smooth_mesh" : 1,
                    "tri_face" : 0,
                    "sphere_mesh" : 0,
                    "land_material" : "",
                    "water_material" : "",
                    "texture_block" : "",
                    "subdivision_x" : 128,
                    "subdivision_y" : 128,
                    "mesh_size_x" : 2,
                    "mesh_size_y" : 2,
                    "mesh_size" : 2,
                    "random_seed" : 13,
                    "noise_offset_x" : 0,
                    "noise_offset_y" : 0,
                    "noise_offset_z" : 0,
                    "noise_size_x" : 1,
                    "noise_size_y" : 1,
                    "noise_size_z" : 1,
                    "noise_size" : 1,
                    "noise_type" : 5,
                    "basis_type" : 2,
                    "vl_basis_type" : 0,
                    "distortion" : 1,
                    "hard_noise" : 1,
                    "noise_depth" : 7,
                    "amplitude" : 0.47999998927116394,
                    "frequency" : 1.649999976158142,
                    "dimension" : 1,
                    "lacunarity" : 2,
                    "offset" : 0.8999999761581421,
                    "gain" : 3,
                    "marble_bias" : 2,
                    "marble_sharp" : 0,
                    "marble_shape" : 4,
                    "height" : 0.30000001192092896,
                    "height_invert" : 0,
                    "height_offset" : 0,
                    "maximum" : 1,
                    "minimum" : -1,
                    "edge_falloff" : 0,
                    "edge_level" : 0,
                    "falloff_x" : 4,
                    "falloff_y" : 4,
                    "strata_type" : 0,
                    "strata" : 3,
                    "water_plane" : 0,
                    "water_level" : -0.019999999552965164,
                    "vert_group" : "",
                    "remove_double" : 0,
                    "fx_mixfactor" : 0,
                    "fx_mix_mode" : 0,
                    "fx_type" : 0,
                    "fx_bias" : 0,
                    "fx_turb" : 0,
                    "fx_depth" : 0,
                    "fx_frequency" : 2,
                    "fx_amplitude" : 0.5,
                    "fx_size" : 1,
                    "fx_loc_x" : 0,
                    "fx_loc_y" : 0,
                    "fx_height" : 0.5,
                    "fx_offset" : 0,
                    "fx_invert" : 0
                }
            },
            "mesh" : 0,
            "name" : "Landscape.001"
        }
    ],
    "meshes" : [
        {
            "name" : "Landscape.001",
            "primitives" : [
                {
                    "attributes" : {
                        "POSITION" : 0,
                        "NORMAL" : 1,
                        "TANGENT" : 2,
                        "TEXCOORD_0" : 3
                    },
                    "indices" : 4
                }
            ]
        }
    ],
    "accessors" : [
        {
            "bufferView" : 0,
            "componentType" : 5126,
            "count" : 16384,
            "max" : [
                1,
                0.2777552604675293,
                1
            ],
            "min" : [
                -1,
                0.02001439779996872,
                -1
            ],
            "type" : "VEC3"
        },
        {
            "bufferView" : 1,
            "componentType" : 5126,
            "count" : 16384,
            "type" : "VEC3"
        },
        {
            "bufferView" : 2,
            "componentType" : 5126,
            "count" : 16384,
            "type" : "VEC4"
        },
        {
            "bufferView" : 3,
            "componentType" : 5126,
            "count" : 16384,
            "type" : "VEC2"
        },
        {
            "bufferView" : 4,
            "componentType" : 5123,
            "count" : 96774,
            "type" : "SCALAR"
        }
    ],
    "bufferViews" : [
        {
            "buffer" : 0,
            "byteLength" : 196608,
            "byteOffset" : 0
        },
        {
            "buffer" : 0,
            "byteLength" : 196608,
            "byteOffset" : 196608
        },
        {
            "buffer" : 0,
            "byteLength" : 262144,
            "byteOffset" : 393216
        },
        {
            "buffer" : 0,
            "byteLength" : 131072,
            "byteOffset" : 655360
        },
        {
            "buffer" : 0,
            "byteLength" : 193548,
            "byteOffset" : 786432
        }
    ],
    "buffers" : [
        {
            "byteLength" : 979980,
            "uri" : "terrain.bin"
        }
    ]
}
