{
    "asset" : {
        "generator" : "Khronos glTF Blender I/O v0.9.36",
        "version" : "2.0"
    },
    "scene" : 0,
    "scenes" : [
        {
            "name" : "Scene",
            "nodes" : [
                0
            ]
        }
    ],
    "nodes" : [
        {
            "mesh" : 0,
            "name" : "Cube"
        }
    ],
    "materials" : [
        {
            "doubleSided" : true,
            "name" : "Material",
            "pbrMetallicRoughness" : {
                "baseColorFactor" : [
                    0.800000011920929,
                    0.800000011920929,
                    0.800000011920929,
                    1
                ],
                "metallicFactor" : 0,
                "roughnessFactor" : 0.4000000059604645
            }
        }
    ],
    "meshes" : [
        {
            "name" : "Cube",
            "primitives" : [
                {
                    "attributes" : {
                        "POSITION" : 0,
                        "NORMAL" : 1,
                        "TANGENT" : 2,
                        "TEXCOORD_0" : 3
                    },
                    "indices" : 4,
                    "material" : 0
                }
            ]
        }
    ],
    "accessors" : [
        {
            "bufferView" : 0,
            "componentType" : 5126,
            "count" : 850,
            "max" : [
                3.7379493713378906,
                1.12809157371521,
                3.629143238067627
            ],
            "min" : [
                -3.044017791748047,
                -0.1825188398361206,
                -3.629143238067627
            ],
            "type" : "VEC3"
        },
        {
            "bufferView" : 1,
            "componentType" : 5126,
            "count" : 850,
            "type" : "VEC3"
        },
        {
            "bufferView" : 2,
            "componentType" : 5126,
            "count" : 850,
            "type" : "VEC4"
        },
        {
            "bufferView" : 3,
            "componentType" : 5126,
            "count" : 850,
            "type" : "VEC2"
        },
        {
            "bufferView" : 4,
            "componentType" : 5123,
            "count" : 1386,
            "type" : "SCALAR"
        }
    ],
    "bufferViews" : [
        {
            "buffer" : 0,
            "byteLength" : 10200,
            "byteOffset" : 0
        },
        {
            "buffer" : 0,
            "byteLength" : 10200,
            "byteOffset" : 10200
        },
        {
            "buffer" : 0,
            "byteLength" : 13600,
            "byteOffset" : 20400
        },
        {
            "buffer" : 0,
            "byteLength" : 6800,
            "byteOffset" : 34000
        },
        {
            "buffer" : 0,
            "byteLength" : 2772,
            "byteOffset" : 40800
        }
    ],
    "buffers" : [
        {
            "byteLength" : 43572,
            "uri" : "plane.bin"
        }
    ]
}
